<svg version="1.1" xmlns="http://www.w3.org/2000/svg" style="display: block;" viewBox="0 0 2048 1170" width="1344" height="768" preserveAspectRatio="none"><metadata><c2pa:manifest xmlns:c2pa="http://c2pa.org/manifest">AAAMfWp1bWIAAAAeanVtZGMycGEAEQAQgAAAqgA4m3EDYzJwYQAAAAxXanVtYgAAAEdqdW1kYzJtYQARABCAAACqADibcQN1cm46YzJwYTo2ZjNlMWEwYy0yNjVkLTQxMjUtYjM5Mi05OGExZjg0YzMzYmQAAAAB4mp1bWIAAAApanVtZGMyYXMAEQAQgAAAqgA4m3EDYzJwYS5hc3NlcnRpb25zAAAAAO1qdW1iAAAAQWp1bWRjYm9yABEAEIAAAKoAOJtxE2MycGEuYWN0aW9ucy52MgAAAAAYYzJzaAef7cAvzAvzn1lXr7xxz9kAAACkY2JvcqFnYWN0aW9uc4GjZmFjdGlvbmxjMnBhLmNyZWF0ZWRxZGlnaXRhbFNvdXJjZVR5cGV4Rmh0dHA6Ly9jdi5pcHRjLm9yZy9uZXdzY29kZXMvZGlnaXRhbHNvdXJjZXR5cGUvdHJhaW5lZEFsZ29yaXRobWljTWVkaWFrZGVzY3JpcHRpb252Q3JlYXRlZCBieSBSZWNyYWZ0IEFJLgAAAMRqdW1iAAAAQGp1bWRjYm9yABEAEIAAAKoAOJtxE2MycGEuaGFzaC5kYXRhAAAAABhjMnNoH48jF3kzbegV+AoviHjwewAAAHxjYm9ypWpleGNsdXNpb25zgaJlc3RhcnQY2mZsZW5ndGgZEKhkbmFtZW5qdW1iZiBtYW5pZmVzdGNhbGdmc2hhMjU2ZGhhc2hYIBlCfgoQ8ko3veKry5L10GUA80DwPGY1wgOoQfhgASCaY3BhZEkAAAAAAAAAAAAAAAJKanVtYgAAACdqdW1kYzJjbAARABCAAACqADibcQNjMnBhLmNsYWltLnYyAAAAAhtjYm9yp2ppbnN0YW5jZUlEeCx4bXA6aWlkOjMxMjQzNmFlLTdiN2EtNDVkNC1iZjM1LWQ2MTMwNTUwYTJmYXRjbGFpbV9nZW5lcmF0b3JfaW5mb79kbmFtZWpyZWNyYWZ0LmFpZ3ZlcnNpb254KDgxY2U4MmUyYzVjM2NiZmJlOGM2ZmJlMTc5ZDVmOGQ5MWM0MDljZTF3b3JnLmNvbnRlbnRhdXRoLmMycGFfcnNmMC43Mi4w/2lzaWduYXR1cmV4TXNlbGYjanVtYmY9L2MycGEvdXJuOmMycGE6NmYzZTFhMGMtMjY1ZC00MTI1LWIzOTItOThhMWY4NGMzM2JkL2MycGEuc2lnbmF0dXJlcmNyZWF0ZWRfYXNzZXJ0aW9uc4GiY3VybHgpc2VsZiNqdW1iZj1jMnBhLmFzc2VydGlvbnMvYzJwYS5oYXNoLmRhdGFkaGFzaFggR1ZvHOurnoDA6ldPtbogVl5aQaaJHXrHfn93t9aUvlhzZ2F0aGVyZWRfYXNzZXJ0aW9uc4GiY3VybHgqc2VsZiNqdW1iZj1jMnBhLmFzc2VydGlvbnMvYzJwYS5hY3Rpb25zLnYyZGhhc2hYINmgLz24u2SWMwX/Mu75fw6f74dgVBnU01JW/JGUNFwqaGRjOnRpdGxleBpSZWNyYWZ0IEFJIEdlbmVyYXRlZCBJbWFnZWNhbGdmc2hhMjU2AAAH3Gp1bWIAAAAoanVtZGMyY3MAEQAQgAAAqgA4m3EDYzJwYS5zaWduYXR1cmUAAAAHrGNib3LShFkDsKIBJhghglkB5zCCAeMwggGJoAMCAQICCQC33lpjQ1FuejAKBggqhkjOPQQDAjBAMR8wHQYDVQQDDBZSZWNyYWZ0IFN0YWdpbmcgRGV2IENBMRAwDgYDVQQKDAdSZWNyYWZ0MQswCQYDVQQGEwJVUzAeFw0yNjA2MTIxOTQzNTBaFw0yNzA2MTIxOTQzNTBaMDcxCzAJBgNVBAYTAlVTMRMwEQYDVQQKEwpSZWNyYWZ0IEFJMRMwEQYDVQQDEwpyZWNyYWZ0LmFpMFkwEwYHKoZIzj0CAQYIKoZIzj0DAQcDQgAESmk1WwArIPw3hty3jsWHSA/1QOhBRu9xOjpJ2/iiIghScoEVM+Lnjds/7dqmG+giFL0vEb4DoogpX6KrGLcPNaN1MHMwDAYDVR0TAQH/BAIwADAOBgNVHQ8BAf8EBAMCBsAwEwYDVR0lBAwwCgYIKwYBBQUHAwQwHQYDVR0OBBYEFC8x6QXp/eki9cuCDx2vDJDLIV39MB8GA1UdIwQYMBaAFAILKjgayqqXSv/5v5MWaO2UeHm3MAoGCCqGSM49BAMCA0gAMEUCIFPISltGl775PEkIFRTZGsevWJvWnvBrE9kWU0MPgedQAiEAtA+AZBKEQ+DdK9mUZDctB2Wlt1iAsv0GRjfeYpReMsxZAb0wggG5MIIBX6ADAgECAgkAnPloO0+gE28wCgYIKoZIzj0EAwIwQDEfMB0GA1UEAwwWUmVjcmFmdCBTdGFnaW5nIERldiBDQTEQMA4GA1UECgwHUmVjcmFmdDELMAkGA1UEBhMCVVMwHhcNMjYwNjEyMTk0MDE2WhcNMjgwNjExMTk0MDE2WjBAMR8wHQYDVQQDDBZSZWNyYWZ0IFN0YWdpbmcgRGV2IENBMRAwDgYDVQQKDAdSZWNyYWZ0MQswCQYDVQQGEwJVUzBZMBMGByqGSM49AgEGCCqGSM49AwEHA0IABEPSEAZXFWymij2K0EnzoS/9NLO8VAwu0YpyLizvyNZPfcvcoeqFhfZD8Wj/rcdb9T3ji98q1arie99B9GRog8qjQjBAMA8GA1UdEwEB/wQFMAMBAf8wDgYDVR0PAQH/BAQDAgGGMB0GA1UdDgQWBBQCCyo4Gsqql0r/+b+TFmjtlHh5tzAKBggqhkjOPQQDAgNIADBFAiBUMDSJi5WA3kIY4BfmYqk24HLs0qpjicN0NpUP4bvNxQIhAPTvHC5v8X6FS6geI7XW7h84t1i/qdkTfg0RpMKWLMFboWNwYWRZA6QAAAAAAAAAAAAAAAAAAAAAAAAAAAAAAAAAAAAAAAAAAAAAAAAAAAAAAAAAAAAAAAAAAAAAAAAAAAAAAAAAAAAAAAAAAAAAAAAAAAAAAAAAAAAAAAAAAAAAAAAAAAAAAAAAAAAAAAAAAAAAAAAAAAAAAAAAAAAAAAAAAAAAAAAAAAAAAAAAAAAAAAAAAAAAAAAAAAAAAAAAAAAAAAAAAAAAAAAAAAAAAAAAAAAAAAAAAAAAAAAAAAAAAAAAAAAAAAAAAAAAAAAAAAAAAAAAAAAAAAAAAAAAAAAAAAAAAAAAAAAAAAAAAAAAAAAAAAAAAAAAAAAAAAAAAAAAAAAAAAAAAAAAAAAAAAAAAAAAAAAAAAAAAAAAAAAAAAAAAAAAAAAAAAAAAAAAAAAAAAAAAAAAAAAAAAAAAAAAAAAAAAAAAAAAAAAAAAAAAAAAAAAAAAAAAAAAAAAAAAAAAAAAAAAAAAAAAAAAAAAAAAAAAAAAAAAAAAAAAAAAAAAAAAAAAAAAAAAAAAAAAAAAAAAAAAAAAAAAAAAAAAAAAAAAAAAAAAAAAAAAAAAAAAAAAAAAAAAAAAAAAAAAAAAAAAAAAAAAAAAAAAAAAAAAAAAAAAAAAAAAAAAAAAAAAAAAAAAAAAAAAAAAAAAAAAAAAAAAAAAAAAAAAAAAAAAAAAAAAAAAAAAAAAAAAAAAAAAAAAAAAAAAAAAAAAAAAAAAAAAAAAAAAAAAAAAAAAAAAAAAAAAAAAAAAAAAAAAAAAAAAAAAAAAAAAAAAAAAAAAAAAAAAAAAAAAAAAAAAAAAAAAAAAAAAAAAAAAAAAAAAAAAAAAAAAAAAAAAAAAAAAAAAAAAAAAAAAAAAAAAAAAAAAAAAAAAAAAAAAAAAAAAAAAAAAAAAAAAAAAAAAAAAAAAAAAAAAAAAAAAAAAAAAAAAAAAAAAAAAAAAAAAAAAAAAAAAAAAAAAAAAAAAAAAAAAAAAAAAAAAAAAAAAAAAAAAAAAAAAAAAAAAAAAAAAAAAAAAAAAAAAAAAAAAAAAAAAAAAAAAAAAAAAAAAAAAAAAAAAAAAAAAAAAAAAAAAAAAAAAAAAAAAAAAAAAAAAAAAAAAAAAAAAAAAAAAAAAAAAAAAAAAAAAAAAAAAAAAAAAAAAAAAAAAAAAAAAAAAAAAAAAAAAAAAAAAAAAAAAAAAAAAAAAAAAAAAAAAAAAAAAAAAAAAAAAAAAAAAAAAAAAAAAAAAAAAAAAAAAAAAPZYQKZ+ExH9bjacdWv+gctk8xr6LOF3K2MB9o/DsxumK1ohjNCbPyJKSgdy7/VUWDr3ZmOvLgLbyuGXkzqGJeqrHRQ=</c2pa:manifest></metadata>

<path transform="translate(0,0)" fill="rgb(13,10,24)" d="M 230.127 426.588 C 254.079 426.495 278.031 426.571 301.981 426.816 L 301.875 441.128 L 302.739 441.248 C 310.671 442.292 309.084 441.576 309.059 449.925 L 1930.94 450.035 L 1926.25 464.846 L 1937.1 466.498 L 1881.57 645.363 C 1873.18 672.354 1864.18 703.956 1855.02 730.316 L 1826.06 730.541 L 1826.02 743.151 L 1753.49 743.064 L 1753.4 730.849 C 1685.07 729.535 1611.68 730.758 1543.1 730.832 L 1192.57 730.799 L 138.179 730.223 L 141.692 717.989 L 122.411 718.009 C 150.688 628.823 177.252 538.671 206.43 449.888 L 230.266 449.489 L 230.127 426.588 z"/>
<path transform="translate(0,0)" fill="rgb(198,255,46)" d="M 141.692 717.989 L 1753.38 717.918 L 1753.4 730.849 C 1685.07 729.535 1611.68 730.758 1543.1 730.832 L 1192.57 730.799 L 138.179 730.223 L 141.692 717.989 z"/>
<path transform="translate(0,0)" fill="rgb(198,255,46)" d="M 1926.25 464.846 L 1937.1 466.498 L 1881.57 645.363 C 1873.18 672.354 1864.18 703.956 1855.02 730.316 L 1826.06 730.541 L 1826.13 717.999 L 1848.31 717.998 C 1853.26 703.202 1857.77 686.59 1862.44 671.523 C 1873.16 637.647 1883.71 603.716 1894.08 569.732 C 1904.5 535.818 1917.5 498.622 1926.25 464.846 z"/>
<path transform="translate(0,0)" fill="rgb(198,255,46)" d="M 301.875 441.128 L 302.739 441.248 C 310.671 442.292 309.084 441.576 309.059 449.925 C 300.488 449.636 301.629 450.151 301.875 441.128 z"/>
<path transform="translate(0,0)" fill="rgb(255,31,122)" d="M 301.264 469.852 L 1902.97 469.941 L 1899.61 481.967 L 1856.35 623.005 C 1853 633.961 1836.28 689.074 1832.19 696.321 C 1829.19 696.734 1829.15 697.246 1826.86 696.202 C 1825.45 690.139 1825.98 675.48 1825.99 668.51 C 1801.71 668.625 1777.43 668.541 1753.15 668.257 L 1753.17 697.16 L 709.37 697.182 L 398.845 697.574 C 320.265 697.41 239.967 696.168 161.504 697.195 C 157.812 697.258 153.971 697.744 150.75 696.252 C 166.02 644.982 182.413 593.118 198.45 542.06 L 212.223 497.977 C 214.584 490.343 217.873 478.389 220.839 471.579 C 224.017 469.303 224.839 470.205 229.716 470.34 C 230.998 480.183 230.751 491.192 230.781 501.2 C 253.325 501.173 278.844 500.555 301.159 501.438 C 301.363 491.055 301.238 480.27 301.264 469.852 z"/>
<path transform="translate(0,0)" fill="rgb(253,251,242)" d="M 301.264 469.852 L 1902.97 469.941 L 1899.61 481.967 L 309.167 481.977 L 309.114 512.313 C 288.409 512.342 267.2 512.611 246.537 512.303 C 246.535 508.833 246.444 504.946 246.586 501.519 C 260.515 501.649 287.995 502.546 301.159 501.438 C 301.363 491.055 301.238 480.27 301.264 469.852 z"/>
<path transform="translate(0,0)" fill="rgb(253,251,242)" d="M 161.504 697.195 C 157.812 697.258 153.971 697.744 150.75 696.252 C 166.02 644.982 182.413 593.118 198.45 542.06 L 212.223 497.977 C 214.584 490.343 217.873 478.389 220.839 471.579 C 224.017 469.303 224.839 470.205 229.716 470.34 C 229.255 485.193 214.357 527.666 209.085 544.127 C 192.861 594.775 177.896 646.749 161.504 697.195 z"/>
<path transform="translate(0,0)" fill="rgb(198,255,46)" d="M 248.148 445.976 L 283.157 445.904 C 283.052 457.87 283.249 469.993 283.048 481.892 L 248.029 481.861 L 248.148 445.976 z"/>
<path transform="translate(0,0)" fill="rgb(198,255,46)" d="M 1772.23 688 L 1807.05 687.92 L 1807.09 723.239 L 1772.08 723.425 C 1772.07 711.726 1772.03 699.668 1772.23 688 z"/>
</svg>